<svg xmlns="http://www.w3.org/2000/svg" viewBox="0 0 96 96"><defs><radialGradient id="gt08" cx="72%" cy="18%" r="90%"><stop offset="0" stop-color="#76d23a" stop-opacity=".62"/><stop offset=".6" stop-color="#76d23a" stop-opacity=".16"/><stop offset="1" stop-color="#76d23a" stop-opacity="0"/></radialGradient></defs><rect width="96" height="96" fill="#15181d"/><rect width="96" height="96" fill="url(#gt08)"/><circle cx="48" cy="34" r="27" fill="#2b2622"/><path d="M41.5 58h13v12c-3.5 3.5-9.5 3.5-13 0z" fill="#6f452a"/><path d="M12 96c2-18 15-28 36-28s34 10 36 28z" fill="#2f5a2a"/><ellipse cx="29.5" cy="46" rx="3" ry="4.5" fill="#6f452a"/><ellipse cx="66.5" cy="46" rx="3" ry="4.5" fill="#6f452a"/><ellipse cx="48" cy="44" rx="18.5" ry="21.5" fill="#8a5a3a"/><path d="M37 39.5h8M51 39.5h8" stroke="#2b2622" stroke-width="2" stroke-linecap="round"/><circle cx="41" cy="45" r="3.4" fill="#fff"/><circle cx="55" cy="45" r="3.4" fill="#fff"/><circle cx="41.6" cy="45.4" r="1.9" fill="#1b1d22"/><circle cx="55.6" cy="45.4" r="1.9" fill="#1b1d22"/><path d="M48 46.500v4.500l-2.2 1.4" fill="none" stroke="rgba(90,50,35,.5)" stroke-width="1.5" stroke-linecap="round" stroke-linejoin="round"/><path d="M42.5 56.500c3 3 8 3 11 0" fill="none" stroke="#7a3d30" stroke-width="2" stroke-linecap="round"/><path d="M29 44c-1-12 6-20 19-20s20 8 19 20c-3-7-9-11-19-11s-16 4-19 11z" fill="#2b2622"/></svg>