<svg xmlns="http://www.w3.org/2000/svg" viewBox="0 0 96 96"><defs><radialGradient id="gt09" cx="72%" cy="18%" r="90%"><stop offset="0" stop-color="#38bdf8" stop-opacity=".62"/><stop offset=".6" stop-color="#38bdf8" stop-opacity=".16"/><stop offset="1" stop-color="#38bdf8" stop-opacity="0"/></radialGradient></defs><rect width="96" height="96" fill="#15181d"/><rect width="96" height="96" fill="url(#gt09)"/><path d="M41.5 58h13v12c-3.5 3.5-9.5 3.5-13 0z" fill="#e9bd9c"/><path d="M12 96c2-18 15-28 36-28s34 10 36 28z" fill="#24415f"/><ellipse cx="28" cy="46" rx="3" ry="4.5" fill="#e9bd9c"/><ellipse cx="68" cy="46" rx="3" ry="4.5" fill="#e9bd9c"/><ellipse cx="48" cy="45" rx="20" ry="20" fill="#f7d9bf"/><circle cx="37" cy="51" r=".800" fill="#a8623f" opacity=".7"/><circle cx="39.5" cy="52.5" r=".800" fill="#a8623f" opacity=".7"/><circle cx="56.5" cy="52.5" r=".800" fill="#a8623f" opacity=".7"/><circle cx="59" cy="51" r=".800" fill="#a8623f" opacity=".7"/><path d="M37 40c2-2 5-2.4 8-1.4M51 38.6c3-1 6-.6 8 1.4" stroke="#4a2f22" stroke-width="2" fill="none" stroke-linecap="round"/><circle cx="41" cy="45" r="3.4" fill="#fff"/><circle cx="55" cy="45" r="3.4" fill="#fff"/><circle cx="41.6" cy="45.4" r="1.9" fill="#1b1d22"/><circle cx="55.6" cy="45.4" r="1.9" fill="#1b1d22"/><path d="M48 46.500v4.500l-2.2 1.4" fill="none" stroke="rgba(90,50,35,.5)" stroke-width="1.5" stroke-linecap="round" stroke-linejoin="round"/><path d="M41.5 55.500h13c-1 4.5-3.5 6.5-6.5 6.500s-5.5-2-6.5-6.500z" fill="#fff" stroke="#7a3d30" stroke-width="1.4" stroke-linejoin="round"/><circle cx="31" cy="30" r="7.4" fill="#4a2f22"/><circle cx="38" cy="22" r="7.4" fill="#4a2f22"/><circle cx="48" cy="19" r="7.4" fill="#4a2f22"/><circle cx="58" cy="22" r="7.4" fill="#4a2f22"/><circle cx="65" cy="30" r="7.4" fill="#4a2f22"/><circle cx="29" cy="39" r="7.4" fill="#4a2f22"/><circle cx="67" cy="39" r="7.4" fill="#4a2f22"/></svg>