<svg xmlns="http://www.w3.org/2000/svg" viewBox="0 0 96 96"><defs><radialGradient id="gt14" cx="72%" cy="18%" r="90%"><stop offset="0" stop-color="#7d6bf0" stop-opacity=".62"/><stop offset=".6" stop-color="#7d6bf0" stop-opacity=".16"/><stop offset="1" stop-color="#7d6bf0" stop-opacity="0"/></radialGradient></defs><rect width="96" height="96" fill="#15181d"/><rect width="96" height="96" fill="url(#gt14)"/><path d="M62 24c12 1 18 12 16 27-1 8-5 13-9 14 3-12 1-24-9-33z" fill="#7a3b22"/><path d="M41.5 58h13v12c-3.5 3.5-9.5 3.5-13 0z" fill="#dca982"/><path d="M12 96c2-18 15-28 36-28s34 10 36 28z" fill="#2a2440"/><path d="M38.5 60.500h19v10c-5 3.5-14 3.5-19 0z" fill="#3a3358"/><ellipse cx="31.2" cy="46" rx="3" ry="4.5" fill="#dca982"/><ellipse cx="64.8" cy="46" rx="3" ry="4.5" fill="#dca982"/><ellipse cx="48" cy="44.5" rx="16.6" ry="23" fill="#f0c8a4"/><circle cx="57.5" cy="54" r="1" fill="#5a3324"/><path d="M37 40c2-2 5-2.4 8-1.4M51 38.6c3-1 6-.6 8 1.4" stroke="#7a3b22" stroke-width="2" fill="none" stroke-linecap="round"/><circle cx="41" cy="45" r="2.3" fill="#1b1d22"/><circle cx="55" cy="45" r="2.3" fill="#1b1d22"/><path d="M48 46.500v4.500l-2.2 1.4" fill="none" stroke="rgba(90,50,35,.5)" stroke-width="1.5" stroke-linecap="round" stroke-linejoin="round"/><path d="M43 58c3 .800 6.5 0 9.5-3" fill="none" stroke="#7a3d30" stroke-width="2" stroke-linecap="round"/><circle cx="48" cy="13" r="8.5" fill="#7a3b22"/><path d="M30 43c0-15 8-25 18-25s18 10 18 25c-4-8-10-13-18-13s-14 5-18 13z" fill="#7a3b22"/></svg>